<svg width="124" height="41" viewBox="0 0 124 41" fill="none" xmlns="http://www.w3.org/2000/svg">
<path d="M51.77 33.9349V26.0149H56.2415V26.6474H52.4025V29.6559H55.5815V30.2939H52.4025V33.9349H51.77ZM61.737 33.9349V26.0149H62.3695V33.9349H61.737ZM68.4225 33.9349V26.0149H69.0605L73.6475 32.8074V26.0149H74.2855V33.9349H73.6475L69.0605 27.1314V33.9349H68.4225ZM79.6739 33.9349L82.4789 26.0149H83.2654L86.0704 33.9349H85.3994L82.7044 26.3449H83.0234L80.3449 33.9349H79.6739ZM80.8344 31.9439V31.3444H84.9044V31.9439H80.8344ZM91.4559 33.9349V26.0149H92.0939L96.6809 32.8074V26.0149H97.3189V33.9349H96.6809L92.0939 27.1314V33.9349H91.4559ZM106.42 34.0999C105.631 34.0999 104.97 33.9257 104.434 33.5774C103.899 33.2254 103.496 32.7396 103.224 32.1199C102.953 31.5002 102.817 30.7852 102.817 29.9749C102.817 29.1646 102.953 28.4496 103.224 27.8299C103.496 27.2102 103.899 26.7262 104.434 26.3779C104.97 26.0259 105.631 25.8499 106.42 25.8499C107.34 25.8499 108.086 26.0882 108.658 26.5649C109.234 27.0416 109.624 27.6796 109.83 28.4789L109.175 28.6384C109.007 27.9747 108.691 27.4486 108.229 27.0599C107.771 26.6676 107.168 26.4714 106.42 26.4714C105.771 26.4714 105.23 26.6199 104.797 26.9169C104.368 27.2139 104.044 27.6264 103.824 28.1544C103.607 28.6824 103.497 29.2892 103.494 29.9749C103.486 30.6606 103.591 31.2674 103.807 31.7954C104.027 32.3197 104.355 32.7322 104.792 33.0329C105.228 33.3299 105.771 33.4784 106.42 33.4784C107.168 33.4784 107.771 33.2822 108.229 32.8899C108.691 32.4976 109.007 31.9714 109.175 31.3114L109.83 31.4709C109.624 32.2702 109.234 32.9082 108.658 33.3849C108.086 33.8616 107.34 34.0999 106.42 34.0999ZM115.435 33.9349V26.0149H120.33V26.6309H116.067V29.6394H119.67V30.2554H116.067V33.3189H120.33V33.9349H115.435Z" fill="#FFB703"/>
<path d="M52.36 21V7.72H47.2V6.6H58.67V7.72H53.51V21H52.36ZM62.275 21V6.6H67.705C67.845 6.6 67.995 6.60667 68.155 6.62C68.3217 6.62667 68.495 6.64667 68.675 6.68C69.395 6.79333 70.0117 7.05333 70.525 7.46C71.045 7.86 71.4417 8.36667 71.715 8.98C71.9883 9.58667 72.125 10.2567 72.125 10.99C72.125 12.05 71.8417 12.9733 71.275 13.76C70.7083 14.5467 69.9183 15.0467 68.905 15.26L68.575 15.39H63.425V21H62.275ZM71.145 21L68.305 15.14L69.375 14.6L72.495 21H71.145ZM63.425 14.26H67.685C67.805 14.26 67.9417 14.2533 68.095 14.24C68.255 14.2267 68.415 14.2067 68.575 14.18C69.095 14.0733 69.5283 13.8633 69.875 13.55C70.2217 13.23 70.4817 12.8467 70.655 12.4C70.8283 11.9533 70.915 11.4833 70.915 10.99C70.915 10.4967 70.8283 10.03 70.655 9.59C70.4817 9.14333 70.2217 8.76333 69.875 8.45C69.5283 8.13 69.095 7.91667 68.575 7.81C68.415 7.77667 68.255 7.75333 68.095 7.74C67.9417 7.72667 67.805 7.72 67.685 7.72H63.425V14.26ZM76.8969 21V6.6H78.0469V21H76.8969ZM83.2523 21V6.6H84.4023V19.88H91.4023V21H83.2523ZM95.1109 21V6.6H96.2609V13.24H104.601V6.6H105.761V21H104.601V14.36H96.2609V21H95.1109Z" fill="#32412C"/>
<path d="M117 6.97928L123 20.9379H121.5L116 7.85169L110.5 20.9379H109L115 6.97928H117Z" fill="#32412C" stroke="#32412C" stroke-width="0.1"/>
<path d="M118 20.9379H114L116 16.5758L118 20.9379Z" fill="#FFB703"/>
<path d="M0 5C0 2.23858 2.23858 0 5 0H35C37.7614 0 40 2.23858 40 5V34.8816C40 37.6431 37.7614 39.8816 35 39.8816H5C2.23858 39.8816 0 37.6431 0 34.8816V5Z" fill="#283618"/>
<path d="M39 37.8875H38V36.8905H39.5L39 37.389V37.8875Z" fill="#4C603C"/>
<path d="M33.4737 30.9153H4L18.4783 5.98224L33.4737 30.9153Z" fill="#606C38"/>
<path d="M36 30.9153H12.421L24.0037 10.9688L36 30.9153Z" fill="#606C38" stroke="black" stroke-width="0.001"/>
<path d="M39.582 36.8905H0.410202L1.99996 34.1713L3.99996 30.9083H36L39.582 36.8905Z" fill="#606C38"/>
<path d="M5 39.8816V36.8905H35V39.8816H5Z" fill="#606C38"/>
<path d="M22.6806 13.0826C22.6806 13.0826 22.6806 13.0826 22.6806 13.0826C22.9622 13.6102 23.1737 14.0529 23.4012 14.5782C24.4191 16.7607 24.6985 19.5996 22.6838 21.0271C20.8283 22.5187 18.3716 23.4015 16.1127 24.7788C11.3917 27.2814 7.91385 32.7075 7.31419 38.1097C7.2273 38.6859 7.15812 39.284 7.1078 39.9047C8.44538 39.896 9.78296 39.8872 11.1205 39.8785C11.1017 39.341 11.0992 38.8256 11.1116 38.3306C11.1456 33.6824 13.1553 29.3149 17.2012 26.4159C19.1377 24.8858 21.479 23.7645 23.4354 21.8044C24.3998 20.834 25.031 19.376 24.8725 18.0358C24.7532 16.7259 24.1849 15.5268 23.5814 14.4845C23.2908 13.9846 23.0198 13.5745 22.6806 13.0826Z" fill="#FFB703"/>
<path d="M38 38.8846H35V36.8905H38V38.8846Z" fill="#4C603C"/>
<path d="M35 39.8816C37.3484 39.4771 38.7406 38.8387 39.5 36.8905H35V39.8816Z" fill="#32412C"/>
<path d="M2 38.8846C1.15728 38.1799 0.825257 37.7445 0.5 36.8905H5V38.3861V39.8816C3.67326 39.8175 3.01993 39.5923 2 38.8846Z" fill="#606C38"/>
<path d="M38 38.8846C38.8427 38.1799 39.1747 37.7445 39.5 36.8905H35V38.3861V39.8816C36.3267 39.8175 36.9801 39.5923 38 38.8846Z" fill="#606C38"/>
<path d="M0.569537 37.0035C0.561256 37.0004 0.542537 36.9921 0.53049 36.9848C0.513137 36.9741 0.585912 37.0344 0.626193 37.0706C0.637162 37.0805 0.644506 37.0889 0.651256 37.0967C0.654912 37.1004 0.659037 37.1034 0.663287 37.1066" stroke="#4C603C" stroke-width="0.01" stroke-linecap="round"/>
<path d="M0.619525 37.0319C0.612275 37.0247 0.59565 37.0122 0.581556 36.9997C0.563599 36.9838 0.54465 36.9674 0.528947 36.9513C0.516291 36.9382 0.513275 36.9185 0.511728 36.9054C0.511112 36.9002 0.502869 36.9183 0.499244 36.9251C0.497801 36.9278 0.492525 36.9247 0.4904 36.9148C0.488275 36.905 0.488275 36.8875 0.488275 36.8821C0.488275 36.8803 0.487244 36.8965 0.487228 36.9017C0.487209 36.9082 0.49865 36.8872 0.505416 36.883C0.507662 36.8816 0.509088 36.8871 0.508588 36.8918C0.508088 36.8965 0.506025 36.9016 0.503416 36.9063C0.500807 36.9111 0.497713 36.9152 0.4914 36.9226" stroke="#4C603C" stroke-width="0.01" stroke-linecap="round"/>
<path d="M0.544524 36.9817C0.538306 36.9786 0.523774 36.9661 0.507602 36.9449C0.493625 36.9265 0.486274 36.9101 0.476305 36.8971C0.468739 36.8872 0.502774 36.9131 0.514805 36.9286C0.525228 36.9421 0.524712 36.966 0.539259 36.9873C0.549777 37.0027 0.552837 37.021 0.562196 37.0351C0.571591 37.0492 0.575712 37.0657 0.582009 37.0813C0.588438 37.0972 0.590337 37.1145 0.593993 37.1312C0.597607 37.1476 0.606962 37.1664 0.61429 37.1836C0.621144 37.1997 0.630962 37.2142 0.638243 37.2309C0.645898 37.2484 0.660087 37.262 0.669493 37.2776C0.678905 37.2932 0.691337 37.3056 0.695555 37.3212C0.700415 37.3392 0.712212 37.3544 0.717415 37.3706C0.722598 37.3866 0.733024 37.4012 0.741368 37.4178C0.749712 37.4344 0.762149 37.4469 0.771571 37.4619C0.784676 37.4828 0.798649 37.4946 0.809587 37.5087C0.820672 37.5229 0.829899 37.5383 0.834087 37.5539C0.838502 37.5703 0.860087 37.5767 0.866899 37.5923C0.874263 37.6091 0.885087 37.6234 0.894493 37.639C0.903905 37.6546 0.914274 37.6691 0.925727 37.6852C0.939274 37.6993 0.950743 37.7107 0.956977 37.7169C0.960118 37.7201 0.963212 37.7231 0.966399 37.7263" stroke="#4C603C" stroke-width="0.09" stroke-linecap="round"/>
<path d="M0.731256 36.9896C0.714631 37.0062 0.700069 37.0228 0.687553 37.0364C0.684543 37.0397 0.681319 37.0426 0.678694 37.0422C0.660562 37.0389 0.648006 37.0136 0.63235 37.0042C0.616703 36.9948 0.612568 36.974 0.602647 36.9589C0.59779 36.9515 0.589631 36.9479 0.579256 36.9463C0.573053 36.9454 0.564756 36.9458 0.560506 36.9479C0.553753 36.9511 0.557287 36.9624 0.556787 36.9697C0.555256 36.9729 0.551131 36.9749 0.547459 36.9775C0.543787 36.9802 0.540694 36.9832 0.537506 36.9927" stroke="#4C603C" stroke-width="0.09" stroke-linecap="round"/>
<path d="M0.537503 36.9927C0.538535 37 0.542691 37.0166 0.552566 37.0307C0.563143 37.0458 0.567691 37.0635 0.5698 37.0765C0.571961 37.0899 0.554191 37.0501 0.548988 37.0339C0.543973 37.0183 0.536503 37.0032 0.528675 36.9865C0.521312 36.9708 0.519816 36.9532 0.511488 36.9438C0.500991 36.9318 0.522878 36.976 0.529144 36.9921C0.535258 37.0079 0.546816 37.0228 0.553628 37.0395C0.560437 37.0562 0.566628 37.0728 0.575488 37.089C0.578097 37.0927 0.581191 37.0958 0.583816 37.0994C0.586441 37.1031 0.588503 37.1072 0.590628 37.1115" stroke="#4C603C" stroke-width="0.09" stroke-linecap="round"/>
<path d="M39.3797 36.8741C39.388 36.8772 39.4088 36.8835 39.4265 36.8892C39.443 36.8945 39.4619 36.9001 39.4796 36.9058C39.4883 36.9086 39.4963 36.9105 39.5041 36.9105C39.5079 36.9105 39.5109 36.9146 39.5114 36.9182C39.514 36.9348 39.5026 36.9509 39.4979 36.9676C39.493 36.9852 39.4818 37.0008 39.4719 37.0174C39.4636 37.0314 39.4568 37.0475 39.4485 37.0641C39.4401 37.0808 39.4339 37.0974 39.424 37.114C39.4141 37.1306 39.4058 37.1472 39.3985 37.1638C39.391 37.1809 39.3798 37.1971 39.3703 37.2137C39.3609 37.2303 39.3506 37.2469 39.3396 37.261C39.3285 37.2752 39.3193 37.2905 39.3136 37.3072C39.3077 37.3242 39.3026 37.3404 39.2933 37.3544C39.2837 37.3688 39.2724 37.384 39.2615 37.4006C39.2513 37.4161 39.2412 37.4307 39.2297 37.4474C39.2183 37.464 39.2099 37.4827 39.1985 37.4972C39.1871 37.5117 39.1735 37.5273 39.1579 37.5388C39.1496 37.546 39.1422 37.5544 39.1355 37.5622C39.1318 37.5658 39.1277 37.5689 39.1172 37.5814" stroke="#4C603C" stroke-width="0.09" stroke-linecap="round"/>
</svg>